<svg width="442" height="141" viewBox="0 0 442 141" fill="none" xmlns="http://www.w3.org/2000/svg">
<path d="M56.7969 99H53.9844V34.3125H56.7969V99ZM51.1719 99H48.3594V34.3125H51.1719V99ZM45.5469 99H42.7344V34.3125H45.5469V99ZM39.9219 99H37.1094V34.3125H39.9219V99ZM77.3437 66.6562L93.8672 34.3125H96.9922L80.4687 66.6562L96.9922 99H93.8672L77.3437 66.6562ZM71.0547 66.6562L87.5781 34.3125H90.7031L74.1797 66.6562L90.7031 99H87.5781L71.0547 66.6562ZM64.7656 66.6562L81.2891 34.3125H84.4141L67.8906 66.6562L84.4141 99H81.2891L64.7656 66.6562ZM58.4375 66.6562L75 34.3125H78.125L61.5625 66.6562L78.125 99H75L58.4375 66.6562ZM124.897 42.75H127.709V99H124.897V42.75ZM119.272 42.75H122.084V99H119.272V42.75ZM113.647 42.75H116.459V99H113.647V42.75ZM108.022 42.75H110.834V99H108.022V42.75ZM166.512 72.2422H162.059C156.591 72.2422 152.385 71.1354 149.442 68.9219C146.499 66.6823 145.028 63.6094 145.028 59.7031C145.028 56.0573 146.76 53.0234 150.223 50.6016C153.687 48.1536 158.544 46.9297 164.794 46.9297C168.96 46.9297 172.841 47.5026 176.434 48.6484C180.054 49.7943 183.062 51.4088 185.458 53.4922L183.27 55.25C181.135 53.5052 178.453 52.151 175.223 51.1875C171.994 50.2239 168.518 49.7422 164.794 49.7422C159.299 49.7422 155.093 50.6797 152.177 52.5547C149.286 54.4297 147.841 56.8125 147.841 59.7031C147.841 62.8281 149.026 65.237 151.395 66.9297C153.791 68.5963 157.346 69.4297 162.059 69.4297H166.356C171.903 69.4297 176.148 70.5495 179.091 72.7891C182.059 75.0026 183.544 78.0625 183.544 81.9687C183.544 85.6146 181.812 88.6614 178.348 91.1094C174.885 93.5312 170.028 94.7422 163.778 94.7422C159.611 94.7422 155.718 94.1693 152.098 93.0234C148.505 91.8776 145.51 90.263 143.114 88.1797L145.302 86.4219C147.437 88.1667 150.119 89.5208 153.348 90.4844C156.578 91.4479 160.054 91.9297 163.778 91.9297C169.273 91.9297 173.466 90.9922 176.356 89.1172C179.273 87.2422 180.731 84.8594 180.731 81.9687C180.731 78.8437 179.533 76.4479 177.137 74.7812C174.768 73.0885 171.226 72.2422 166.512 72.2422ZM166.512 77.8672H162.059C154.82 77.8672 149.234 76.2266 145.302 72.9453C141.369 69.638 139.403 65.2239 139.403 59.7031C139.403 57.1771 139.963 54.8073 141.083 52.5937C142.203 50.3802 143.804 48.4401 145.887 46.7734C147.997 45.0807 150.679 43.7526 153.934 42.7891C157.19 41.7995 160.809 41.3047 164.794 41.3047C169.82 41.3047 174.52 42.0729 178.895 43.6094C183.27 45.1198 186.916 47.2422 189.833 49.9766L187.567 51.6562C184.911 49.2604 181.591 47.4114 177.606 46.1094C173.622 44.7812 169.351 44.1172 164.794 44.1172C157.762 44.1172 152.242 45.6016 148.231 48.5703C144.221 51.5391 142.216 55.25 142.216 59.7031C142.216 64.4167 143.934 68.1536 147.372 70.9141C150.809 73.6745 155.705 75.0547 162.059 75.0547H166.356C174.065 75.0547 177.919 77.3594 177.919 81.9687C177.919 84.0521 176.734 85.7708 174.364 87.125C172.02 88.4531 168.492 89.1172 163.778 89.1172C160.471 89.1172 157.398 88.7396 154.559 87.9844C151.721 87.2031 149.377 86.0963 147.528 84.6641L149.755 82.9453C153.01 85.1849 157.684 86.3047 163.778 86.3047C167.684 86.3047 170.549 85.901 172.372 85.0937C174.195 84.2864 175.106 83.2448 175.106 81.9687C175.106 80.4844 174.468 79.4297 173.192 78.8047C171.916 78.1797 169.69 77.8672 166.512 77.8672ZM166.512 66.6172H162.059C154.455 66.6172 150.653 64.3125 150.653 59.7031C150.653 57.6198 151.825 55.9141 154.169 54.5859C156.539 53.2318 160.08 52.5547 164.794 52.5547C168.101 52.5547 171.174 52.9453 174.012 53.7266C176.851 54.4818 179.195 55.5755 181.044 57.0078L178.817 58.7266C175.562 56.487 170.887 55.3672 164.794 55.3672C160.887 55.3672 158.023 55.7708 156.2 56.5781C154.377 57.3854 153.466 58.4271 153.466 59.7031C153.466 61.1875 154.104 62.2422 155.38 62.8672C156.656 63.4922 158.882 63.8047 162.059 63.8047H166.512C173.752 63.8047 179.338 65.4583 183.27 68.7656C187.203 72.0469 189.169 76.4479 189.169 81.9687C189.169 84.4948 188.609 86.8646 187.489 89.0781C186.369 91.2917 184.755 93.2448 182.645 94.9375C180.562 96.6042 177.893 97.9323 174.637 98.9219C171.382 99.8854 167.762 100.367 163.778 100.367C158.752 100.367 154.052 99.612 149.677 98.1015C145.302 96.5651 141.656 94.4297 138.739 91.6953L141.005 90.0156C143.661 92.4114 146.981 94.2734 150.966 95.6015C154.95 96.9036 159.221 97.5547 163.778 97.5547C170.809 97.5547 176.33 96.0703 180.341 93.1015C184.351 90.1328 186.356 86.4219 186.356 81.9687C186.356 77.2552 184.637 73.5182 181.2 70.7578C177.762 67.9974 172.867 66.6172 166.512 66.6172ZM257.23 42.75H260.042V99H257.23V42.75ZM200.941 42.75H203.753V99H200.941V42.75ZM251.605 42.75H254.417V99H251.605V42.75ZM245.98 42.75H248.792V99H245.98V42.75ZM240.355 42.75H243.167V99H240.355V76.5H220.628V99H217.816V42.75H220.628V62.4375H240.355V42.75ZM212.191 42.75H215.003V99H212.191V42.75ZM206.566 42.75H209.378V99H206.566V42.75ZM240.355 73.6875V70.875H220.628V73.6875H240.355ZM240.355 68.0625V65.25H220.628V68.0625H240.355ZM312.947 71.2656C312.947 67.9323 311.918 65.3542 309.861 63.5312C307.804 61.7083 305.082 60.7969 301.697 60.7969C298.832 60.7969 296.371 61.7864 294.314 63.7656C292.257 65.7448 291.228 68.1146 291.228 70.875C291.228 72.4375 291.436 73.8437 291.853 75.0937C292.27 76.3177 292.83 77.3463 293.533 78.1797C294.262 78.987 295.121 79.6641 296.111 80.2109C297.1 80.7318 298.129 81.1094 299.197 81.3437C300.291 81.5781 301.449 81.6953 302.673 81.6953C305.642 81.6953 308.35 80.9661 310.798 79.5078V82.3203C308.272 83.6484 305.551 84.3125 302.634 84.3125C300.759 84.3125 298.989 84.0651 297.322 83.5703C295.681 83.0495 294.184 82.2812 292.83 81.2656C291.475 80.2239 290.395 78.8177 289.587 77.0469C288.806 75.25 288.416 73.1927 288.416 70.875C288.416 67.2812 289.679 64.2344 292.205 61.7344C294.731 59.2344 297.895 57.9844 301.697 57.9844C305.89 57.9844 309.275 59.1693 311.853 61.5391C314.457 63.8828 315.759 67.125 315.759 71.2656V99H312.947V71.2656ZM321.384 71.2656V99H318.572V71.2656C318.572 66.3437 316.996 62.4375 313.845 59.5469C310.694 56.6302 306.645 55.1719 301.697 55.1719C297.114 55.1719 293.285 56.6953 290.212 59.7422C287.14 62.7891 285.603 66.5 285.603 70.875C285.603 73.5312 286.059 75.9141 286.97 78.0234C287.908 80.1328 289.171 81.8255 290.759 83.1016C292.348 84.3776 294.119 85.3542 296.072 86.0312C298.051 86.6823 300.134 87.0078 302.322 87.0078C305.291 87.0078 308.116 86.3177 310.798 84.9375V87.9062C307.986 89.0781 305.147 89.664 302.283 89.664C299.705 89.664 297.257 89.2734 294.939 88.4922C292.621 87.6849 290.551 86.526 288.728 85.0156C286.905 83.4792 285.46 81.5 284.392 79.0781C283.324 76.6302 282.791 73.8958 282.791 70.875C282.791 65.7448 284.6 61.3828 288.22 57.7891C291.866 54.1693 296.358 52.3594 301.697 52.3594C305.447 52.3594 308.806 53.1276 311.775 54.6641C314.744 56.1745 317.087 58.375 318.806 61.2656C320.525 64.1562 321.384 67.4896 321.384 71.2656ZM327.009 71.2656V99H324.197V71.2656C324.197 66.9687 323.207 63.1667 321.228 59.8594C319.275 56.526 316.593 53.9739 313.181 52.2031C309.77 50.4323 305.942 49.5469 301.697 49.5469C297.66 49.5469 293.975 50.5104 290.642 52.4375C287.309 54.3385 284.692 56.9167 282.791 60.1719C280.916 63.4271 279.978 66.9948 279.978 70.875C279.978 74.2083 280.59 77.2552 281.814 80.0156C283.038 82.75 284.679 85.0026 286.736 86.7734C288.819 88.5443 291.176 89.9245 293.806 90.914C296.462 91.8776 299.236 92.3594 302.127 92.3594C305.069 92.3594 307.96 91.7474 310.798 90.5234V93.375C307.83 94.4948 304.913 95.0547 302.048 95.0547C297.543 95.0547 293.403 94.039 289.627 92.0078C285.85 89.9765 282.83 87.0989 280.564 83.375C278.298 79.651 277.166 75.4844 277.166 70.875C277.166 67.5937 277.791 64.4687 279.041 61.5C280.317 58.5312 282.035 55.9661 284.197 53.8047C286.358 51.6432 288.962 49.9245 292.009 48.6484C295.056 47.3724 298.285 46.7344 301.697 46.7344C306.462 46.7344 310.759 47.75 314.587 49.7812C318.442 51.8125 321.475 54.7031 323.689 58.4531C325.903 62.2031 327.009 66.4739 327.009 71.2656ZM332.634 71.2656V99H329.822V71.2656C329.822 65.9531 328.585 61.2135 326.111 57.0469C323.637 52.8542 320.265 49.625 315.994 47.3594C311.723 45.0677 306.957 43.9219 301.697 43.9219C296.645 43.9219 292.022 45.1328 287.83 47.5547C283.637 49.9766 280.343 53.2578 277.947 57.3984C275.551 61.513 274.353 66.0052 274.353 70.875C274.353 74.0781 274.861 77.125 275.877 80.0156C276.918 82.8802 278.324 85.3932 280.095 87.5547C281.892 89.6901 283.949 91.539 286.267 93.1015C288.611 94.664 291.124 95.8489 293.806 96.6562C296.515 97.4635 299.262 97.8672 302.048 97.8672C305.121 97.8672 308.038 97.2812 310.798 96.1094V99C307.908 100.016 304.939 100.523 301.892 100.523C298.741 100.523 295.668 100.081 292.673 99.1953C289.705 98.3099 286.944 97.0078 284.392 95.289C281.866 93.5443 279.64 91.5 277.712 89.1562C275.785 86.7864 274.275 84.026 273.181 80.875C272.087 77.7239 271.541 74.3906 271.541 70.875C271.541 66.8385 272.296 62.9974 273.806 59.3516C275.343 55.6797 277.426 52.5156 280.056 49.8594C282.712 47.1771 285.916 45.0547 289.666 43.4922C293.442 41.9036 297.452 41.1094 301.697 41.1094C306.02 41.1094 310.082 41.8385 313.884 43.2969C317.686 44.7552 320.968 46.7864 323.728 49.3906C326.489 51.9687 328.663 55.1458 330.252 58.9219C331.84 62.6979 332.634 66.8125 332.634 71.2656ZM389.562 76.3047L386.75 71.1875V42.75H389.562V76.3047ZM395.187 86.0312L392.375 81.2656V42.75H395.187V86.0312ZM356.437 65.4453L359.25 70.5625V99H356.437V65.4453ZM350.812 55.3281L353.625 60.4844V99H350.812V55.3281ZM351.789 42.75H355.07L387.648 99H384.367L351.789 42.75ZM358.43 42.75H361.75L394.289 99H390.93L358.43 42.75ZM365.031 42.75H368.312L398 94.1172V42.75H400.812V99H397.492L365.031 42.75ZM348 47.5937V99H345.187V42.75H348.547L381.008 99H377.766L348 47.5937Z" fill="url(#paint0_linear_1_4)"/>
<path d="M2.08616e-06 9.99999C2.08616e-06 4.47714 4.47715 -7.45058e-06 10 -7.45058e-06L409 -7.45058e-06C427.225 -7.45058e-06 442 14.7746 442 33H428C428 18.0883 417.703 5.99999 405 5.99999L10 5.99999C7.79086 5.99999 6 7.79085 6 9.99999H2.08616e-06ZM442 127C442 134.732 435.732 141 428 141H33C14.7746 141 2.08616e-06 126.225 2.08616e-06 108L6 104C6 116.703 18.0883 127 33 127H428H442ZM33 141C14.7746 141 2.08616e-06 126.225 2.08616e-06 108V9.99999C2.08616e-06 4.47714 4.47715 -7.45058e-06 10 -7.45058e-06V5.99999C7.79086 5.99999 6 7.79085 6 9.99999V104C6 116.703 18.0883 127 33 127V141ZM409 -7.45058e-06C427.225 -7.45058e-06 442 14.7746 442 33V127C442 134.732 435.732 141 428 141V127V33C428 18.0883 417.703 5.99999 405 5.99999L409 -7.45058e-06Z" fill="url(#paint1_linear_1_4)" mask="url(#path-1-outside-1_1_4)"/>
<defs>
<linearGradient id="paint0_linear_1_4" x1="33" y1="5.99999" x2="378" y2="183.484" gradientUnits="userSpaceOnUse">
<stop stop-color="#2AFAEC"/>
<stop offset="0.983933" stop-color="#FAE505"/>
</linearGradient>
<linearGradient id="paint1_linear_1_4" x1="-59.8163" y1="-17.7793" x2="451.483" y2="216.738" gradientUnits="userSpaceOnUse">
<stop stop-color="#FAE505" stop-opacity="0.7"/>
<stop offset="1" stop-color="#2AFAEC" stop-opacity="0.7"/>
</linearGradient>
</defs>
</svg>
