<svg xmlns="http://www.w3.org/2000/svg" version="1.1" xmlns:xlink="http://www.w3.org/1999/xlink" xmlns:svgjs="http://svgjs.com/svgjs" width="1440" height="620" preserveAspectRatio="none" viewBox="0 0 1440 620"><g mask="url(&quot;#SvgjsMask1000&quot;)" fill="none"><rect width="1440" height="620" x="0" y="0" fill="rgba(18, 1, 48, 1)"></rect><path d="M696 507L391 812" stroke-width="8" stroke="url(#SvgjsLinearGradient1001)" stroke-linecap="round" class="TopRight"></path><path d="M218 184L512 -110" stroke-width="8" stroke="url(#SvgjsLinearGradient1002)" stroke-linecap="round" class="BottomLeft"></path><path d="M398 218L567 49" stroke-width="6" stroke="url(#SvgjsLinearGradient1002)" stroke-linecap="round" class="BottomLeft"></path><path d="M1261 517L1611 167" stroke-width="10" stroke="url(#SvgjsLinearGradient1002)" stroke-linecap="round" class="BottomLeft"></path><path d="M753 154L1093 -186" stroke-width="10" stroke="url(#SvgjsLinearGradient1001)" stroke-linecap="round" class="TopRight"></path><path d="M961 117L745 333" stroke-width="6" stroke="url(#SvgjsLinearGradient1002)" stroke-linecap="round" class="BottomLeft"></path><path d="M808 255L627 436" stroke-width="8" stroke="url(#SvgjsLinearGradient1001)" stroke-linecap="round" class="TopRight"></path><path d="M789 400L501 688" stroke-width="10" stroke="url(#SvgjsLinearGradient1002)" stroke-linecap="round" class="BottomLeft"></path><path d="M74 151L-166 391" stroke-width="8" stroke="url(#SvgjsLinearGradient1001)" stroke-linecap="round" class="TopRight"></path><path d="M117 361L-105 583" stroke-width="8" stroke="url(#SvgjsLinearGradient1002)" stroke-linecap="round" class="BottomLeft"></path><path d="M407 139L664 -118" stroke-width="6" stroke="url(#SvgjsLinearGradient1001)" stroke-linecap="round" class="TopRight"></path><path d="M112 515L-290 917" stroke-width="10" stroke="url(#SvgjsLinearGradient1001)" stroke-linecap="round" class="TopRight"></path><path d="M303 3L688 -382" stroke-width="6" stroke="url(#SvgjsLinearGradient1001)" stroke-linecap="round" class="TopRight"></path><path d="M1261 612L1654 219" stroke-width="10" stroke="url(#SvgjsLinearGradient1002)" stroke-linecap="round" class="BottomLeft"></path><path d="M1149 331L1323 157" stroke-width="10" stroke="url(#SvgjsLinearGradient1002)" stroke-linecap="round" class="BottomLeft"></path><path d="M1060 534L879 715" stroke-width="6" stroke="url(#SvgjsLinearGradient1001)" stroke-linecap="round" class="TopRight"></path><path d="M579 339L275 643" stroke-width="10" stroke="url(#SvgjsLinearGradient1002)" stroke-linecap="round" class="BottomLeft"></path><path d="M1306 542L1463 385" stroke-width="8" stroke="url(#SvgjsLinearGradient1001)" stroke-linecap="round" class="TopRight"></path><path d="M312 356L709 -41" stroke-width="10" stroke="url(#SvgjsLinearGradient1001)" stroke-linecap="round" class="TopRight"></path><path d="M260 147L-137 544" stroke-width="8" stroke="url(#SvgjsLinearGradient1002)" stroke-linecap="round" class="BottomLeft"></path><path d="M498 591L256 833" stroke-width="10" stroke="url(#SvgjsLinearGradient1001)" stroke-linecap="round" class="TopRight"></path><path d="M1322 283L1504 101" stroke-width="8" stroke="url(#SvgjsLinearGradient1002)" stroke-linecap="round" class="BottomLeft"></path><path d="M1121 355L777 699" stroke-width="6" stroke="url(#SvgjsLinearGradient1002)" stroke-linecap="round" class="BottomLeft"></path><path d="M488 288L104 672" stroke-width="10" stroke="url(#SvgjsLinearGradient1002)" stroke-linecap="round" class="BottomLeft"></path><path d="M677 355L317 715" stroke-width="10" stroke="url(#SvgjsLinearGradient1002)" stroke-linecap="round" class="BottomLeft"></path><path d="M80 82L-313 475" stroke-width="6" stroke="url(#SvgjsLinearGradient1001)" stroke-linecap="round" class="TopRight"></path><path d="M479 259L119 619" stroke-width="10" stroke="url(#SvgjsLinearGradient1002)" stroke-linecap="round" class="BottomLeft"></path><path d="M990 225L1288 -73" stroke-width="8" stroke="url(#SvgjsLinearGradient1002)" stroke-linecap="round" class="BottomLeft"></path><path d="M984 308L1254 38" stroke-width="6" stroke="url(#SvgjsLinearGradient1002)" stroke-linecap="round" class="BottomLeft"></path><path d="M1368 560L1545 383" stroke-width="6" stroke="url(#SvgjsLinearGradient1002)" stroke-linecap="round" class="BottomLeft"></path><path d="M480 434L26 888" stroke-width="8" stroke="url(#SvgjsLinearGradient1001)" stroke-linecap="round" class="TopRight"></path><path d="M943 237L1184 -4" stroke-width="8" stroke="url(#SvgjsLinearGradient1001)" stroke-linecap="round" class="TopRight"></path><path d="M727 111L549 289" stroke-width="10" stroke="url(#SvgjsLinearGradient1002)" stroke-linecap="round" class="BottomLeft"></path><path d="M1398 10L1199 209" stroke-width="6" stroke="url(#SvgjsLinearGradient1002)" stroke-linecap="round" class="BottomLeft"></path><path d="M494 290L790 -6" stroke-width="8" stroke="url(#SvgjsLinearGradient1001)" stroke-linecap="round" class="TopRight"></path><path d="M1269 276L1087 458" stroke-width="8" stroke="url(#SvgjsLinearGradient1001)" stroke-linecap="round" class="TopRight"></path><path d="M1393 364L1187 570" stroke-width="10" stroke="url(#SvgjsLinearGradient1001)" stroke-linecap="round" class="TopRight"></path><path d="M140 132L-312 584" stroke-width="6" stroke="url(#SvgjsLinearGradient1002)" stroke-linecap="round" class="BottomLeft"></path><path d="M549 223L369 403" stroke-width="8" stroke="url(#SvgjsLinearGradient1002)" stroke-linecap="round" class="BottomLeft"></path><path d="M976 197L716 457" stroke-width="8" stroke="url(#SvgjsLinearGradient1002)" stroke-linecap="round" class="BottomLeft"></path></g><defs><mask id="SvgjsMask1000"><rect width="1440" height="620" fill="#ffffff"></rect></mask><linearGradient x1="0%" y1="100%" x2="100%" y2="0%" id="SvgjsLinearGradient1001"><stop stop-color="rgba(42, 250, 236, 0)" offset="0"></stop><stop stop-color="rgba(42, 250, 236, 1)" offset="1"></stop></linearGradient><linearGradient x1="100%" y1="0%" x2="0%" y2="100%" id="SvgjsLinearGradient1002"><stop stop-color="rgba(42, 250, 236, 0)" offset="0"></stop><stop stop-color="rgba(42, 250, 236, 1)" offset="1"></stop></linearGradient></defs></svg>